<svg xmlns="http://www.w3.org/2000/svg" width="36.5" height="33.771" viewBox="0 0 36.5 33.771">
  <path id="Vector" d="M34.118-7.926a.781.781,0,0,1-.357.623,1.488,1.488,0,0,1-.862.258H4.162l7.669,5.54a.926.926,0,0,1,.264.286.676.676,0,0,1,.093.337.676.676,0,0,1-.093.337.926.926,0,0,1-.264.286,1.324,1.324,0,0,1-.4.191A1.635,1.635,0,0,1,10.968,0,1.635,1.635,0,0,1,10.5-.067a1.324,1.324,0,0,1-.4-.191L.358-7.3a.925.925,0,0,1-.265-.286A.675.675,0,0,1,0-7.926a.675.675,0,0,1,.093-.337.925.925,0,0,1,.265-.286l9.747-7.044a1.324,1.324,0,0,1,.4-.191,1.635,1.635,0,0,1,.467-.067,1.635,1.635,0,0,1,.467.067,1.324,1.324,0,0,1,.4.191.926.926,0,0,1,.264.286.676.676,0,0,1,.093.337.676.676,0,0,1-.093.337.926.926,0,0,1-.264.286L4.162-8.806H32.9a1.488,1.488,0,0,1,.862.258A.781.781,0,0,1,34.118-7.926Z" transform="matrix(0.778, -0.628, 0.628, 0.778, 9.962, 33.771)" fill="green"/>
</svg>
